<?xml version="1.0" encoding="utf-8"?>
<!-- Generator: Adobe Illustrator 18.1.0, SVG Export Plug-In . SVG Version: 6.00 Build 0)  -->
<svg version="1.1" xmlns="http://www.w3.org/2000/svg" xmlns:xlink="http://www.w3.org/1999/xlink" x="0px" y="0px" viewBox="0 0 36 26" enable-background="new 0 0 36 26" xml:space="preserve">
  <path fill="#FF7C00" d="M1.8,21.5c0.2-0.1,0.5-0.4,1.1-0.8c0.4-0.3,1.4-1.1,2.9-1.7c1.5-0.6,2.2-0.6,2.7-0.7
  	c1.2-0.2,2.4-0.1,3.3,0.2c1.4,0.3,2.4,1.2,4,3c2.2,2.6,4.2,2.9,6.2,2.1c1.9-0.7,4.6-4.2,7.5-7.5c0.5-0.5,5.1-5.9,5.4-6.2
  	c0,0,0,0,0,0c0,0,0,0,0,0c0,0,0,0,0,0c0,0,0,0,0,0c0,0,0,0,0,0c0,0,0,0,0,0c0,0,0,0,0,0c-1.4-2.5-4.7-7.6-5.3-8.6c0,0,0-0.1-0.1-0.1
  	c0,0,0,0,0,0c0,0,0,0,0,0h0c0,0,0,0,0,0c0,0,0,0,0,0c0,0-0.1,0-0.1,0c0,0,0,0,0,0c0,0,0,0,0,0c-0.2,0.1-0.6,0.3-0.9,0.5
  	C26,3.1,21.2,6,21.1,6c0,0,0,0,0,0c0,0,0,0,0,0c0,0,0,0,0,0c0,0,0,0,0,0c0,0,0,0,0,0.1c0,0,0,0,0,0c0.2,0.8,3.2,14.7,3.3,15.2
  	c-0.4,0.4-0.7,0.7-1.1,1c-0.5,0.4-1,0.7-1.4,0.9c-0.6,0.2-1.1,0.3-1.7,0.3c-1.6-0.1-2.8-1.2-3.7-2.2c-1.4-1.7-2.6-3.5-6.1-3.8
  	c-4-0.3-7.1,1.4-8.1,2.2c-0.5,0.4-0.8,0.6-1,0.8c-0.2,0.2-0.2,0.6,0,0.8C1.4,21.6,1.7,21.6,1.8,21.5z"/>
</svg>
