<?xml version="1.0" encoding="utf-8"?>
<!-- Generator: Adobe Illustrator 17.1.0, SVG Export Plug-In . SVG Version: 6.00 Build 0)  -->
<!DOCTYPE svg PUBLIC "-//W3C//DTD SVG 1.1//EN" "http://www.w3.org/Graphics/SVG/1.1/DTD/svg11.dtd">
<svg version="1.1" id="Layer_1" xmlns="http://www.w3.org/2000/svg" xmlns:xlink="http://www.w3.org/1999/xlink" x="0px" y="0px"
	 viewBox="0 0 4252 4252" enable-background="new 0 0 4252 4252" xml:space="preserve">
<g>
	<path fill="#FF7C00" d="M14.9,178.5c1.7-0.8,4.2-3.3,9.1-6.6c3.3-2.5,11.6-9.1,24.1-14.1c12.5-5,18.3-5,22.4-5.8
		c10-1.7,19.9-0.8,27.4,1.7c11.6,2.5,19.9,10,33.2,24.9c18.3,21.6,34.9,24.1,51.5,17.4c15.8-5.8,38.2-34.9,62.3-62.3
		c4.2-4.2,42.4-49,44.8-51.5c-11.6-20.8-39-63.1-44-71.4c0,0,0-0.8-0.8-0.8h-0.8c-1.7,0.8-5,2.5-7.5,4.2
		c-20.8,11.6-60.6,35.7-61.5,35.7v0.8c1.7,6.6,26.6,122.1,27.4,126.2c-3.3,3.3-5.8,5.8-9.1,8.3c-4.2,3.3-8.3,5.8-11.6,7.5
		c-5,1.7-9.1,2.5-14.1,2.5c-13.3-0.8-23.3-10-30.7-18.3c-11.6-14.1-21.6-29.1-50.7-31.6c-33.2-2.5-59,11.6-67.3,18.3
		c-4.2,3.3-6.6,5-8.3,6.6c-1.7,1.7-1.7,5,0,6.6C11.6,179.4,14.1,179.4,14.9,178.5L14.9,178.5z"/>
</g>
<g>
	<path d="M1569.5,481.3h-415.2c-4.4,0-8-3.6-8-8V232.5c0-4.4,3.6-8,8-8h415.2c4.4,0,8,3.6,8,8v240.8
		C1577.5,477.7,1573.9,481.3,1569.5,481.3z M1162.3,465.3h399.1V240.5h-399.1V465.3z"/>
</g>
<g>
	<path d="M1516.4,335.2c-17.3,0-26-11-33-19.9c-6.7-8.5-10.9-13.3-19.3-13.3c-9.1,0-13.4,5-20.4,13.8c-6.8,8.7-15.3,19.4-31.9,19.4
		c-16.8,0-25.3-10.9-32.1-19.7c-6.7-8.6-10.9-13.5-19.4-13.5c-8.6,0-12.8,4.9-19.5,13.5c-6.8,8.8-15.3,19.7-32,19.7
		c-16.8,0-25.3-10.9-32.1-19.7c-6.7-8.6-10.9-13.5-19.4-13.5c-8.5,0-12.7,4.9-19.4,13.5c-6.8,8.8-15.3,19.7-32.1,19.7
		c-16.8,0-25.3-10.9-32.1-19.7c-6.7-8.6-10.9-13.5-19.4-13.5c-4.4,0-8-3.6-8-8s3.6-8,8-8c16.8,0,25.2,10.9,32,19.7
		c6.7,8.6,10.9,13.5,19.5,13.5c8.5,0,12.7-4.9,19.4-13.5c6.8-8.8,15.3-19.7,32.1-19.7c16.8,0,25.2,10.9,32,19.7
		c6.7,8.6,10.9,13.5,19.5,13.5c8.5,0,12.7-4.9,19.4-13.5c6.8-8.8,15.3-19.7,32.1-19.7c16.8,0,25.2,10.9,32,19.7
		c6.7,8.6,10.9,13.5,19.5,13.5c8.4,0,12.6-4.8,19.3-13.3c7-8.9,15.7-19.9,33-19.9c16.6,0,25.1,10.8,31.9,19.4
		c6.9,8.8,11.3,13.8,20.4,13.8c8.9,0,13.1-4.9,19.8-13.5c6.8-8.8,15.3-19.7,32.5-19.7c4.4,0,8,3.6,8,8s-3.6,8-8,8
		c-8.9,0-13.1,4.9-19.8,13.5C1542.1,324.3,1533.6,335.2,1516.4,335.2z"/>
</g>
<g>
	<path d="M1594.5,481.4h-465.1c-4.4,0-8-3.6-8-8s3.6-8,8-8h465.1c4.4,0,8,3.6,8,8S1598.9,481.4,1594.5,481.4z"/>
</g>
<g>
	<path d="M1486.5,240.5H1445c-4.4,0-8-3.6-8-8v-74.7c0-4.4,3.6-8,8-8h41.5c4.4,0,8,3.6,8,8v74.7
		C1494.5,236.9,1490.9,240.5,1486.5,240.5z M1453,224.5h25.5v-58.7H1453V224.5z"/>
</g>
<g>
	<path d="M1270.6,240.5h-41.5c-4.4,0-8-3.6-8-8v-74.7c0-4.4,3.6-8,8-8h41.5c4.4,0,8,3.6,8,8v74.7
		C1278.6,236.9,1275,240.5,1270.6,240.5z M1237.1,224.5h25.5v-58.7h-25.5V224.5z"/>
</g>
<g>
	<path d="M1378.5,240.6H1337c-4.4,0-8-3.6-8-8v-99.7c0-4.4,3.6-8,8-8h41.5c4.4,0,8,3.6,8,8v99.7
		C1386.5,237,1382.9,240.6,1378.5,240.6z M1345,224.6h25.5v-83.7H1345V224.6z"/>
</g>
<g>
	<path d="M1249.8,132.6c-15.9,0-28.8-12.9-28.8-28.8s12.9-28.8,28.8-28.8c15.9,0,28.8,12.9,28.8,28.8S1265.7,132.6,1249.8,132.6z
		 M1249.8,91c-7,0-12.8,5.7-12.8,12.8s5.7,12.8,12.8,12.8s12.8-5.7,12.8-12.8S1256.8,91,1249.8,91z"/>
</g>
<g>
	<path d="M1357.8,107.7c-15.9,0-28.8-12.9-28.8-28.8s12.9-28.8,28.8-28.8s28.8,12.9,28.8,28.8S1373.7,107.7,1357.8,107.7z
		 M1357.8,66.1c-7,0-12.8,5.7-12.8,12.8s5.7,12.8,12.8,12.8s12.8-5.7,12.8-12.8S1364.8,66.1,1357.8,66.1z"/>
</g>
<g>
	<path d="M1465.8,132.6c-15.9,0-28.8-12.9-28.8-28.8s12.9-28.8,28.8-28.8c15.9,0,28.8,12.9,28.8,28.8S1481.7,132.6,1465.8,132.6z
		 M1465.8,91c-7,0-12.8,5.7-12.8,12.8s5.7,12.8,12.8,12.8s12.8-5.7,12.8-12.8S1472.8,91,1465.8,91z"/>
</g>
<g>
	<g>
		<path d="M695.1,785.3c-18.6,0-36.2-7.4-49.6-20.7c-13.4-13.4-20.8-31-20.8-49.6c0-4.4,3.6-8,8-8s8,3.6,8,8
			c0,14.3,5.7,27.9,16,38.3c10.3,10.3,23.9,16,38.2,16c29.9,0,54.3-24.3,54.3-54.3c0-4.4,3.6-8,8-8s8,3.6,8,8
			C765.4,753.8,733.9,785.3,695.1,785.3z"/>
	</g>
	<g>
		<path d="M932.6,785.3c-38.8,0-70.3-31.5-70.3-70.3c0-4.4,3.6-8,8-8s8,3.6,8,8c0,29.9,24.3,54.3,54.3,54.3
			c29.9,0,54.3-24.3,54.3-54.3c0-4.4,3.6-8,8-8s8,3.6,8,8C1002.9,753.8,971.4,785.3,932.6,785.3z"/>
	</g>
	<g>
		<path d="M814.7,926.5c-15.4,0-27.9-12.5-27.9-27.9s12.5-27.9,27.9-27.9s27.9,12.5,27.9,27.9S830.1,926.5,814.7,926.5z
			 M814.7,886.7c-6.5,0-11.9,5.3-11.9,11.9s5.3,11.9,11.9,11.9s11.9-5.3,11.9-11.9S821.2,886.7,814.7,886.7z"/>
	</g>
	<g>
		<path d="M931.8,865.9c-2.1,0-4.2-0.8-5.8-2.5c-3.1-3.2-3-8.3,0.2-11.3l19.9-19.1c3.2-3.1,8.3-3,11.3,0.2c3.1,3.2,3,8.3-0.2,11.3
			l-19.9,19.1C935.8,865.2,933.8,865.9,931.8,865.9z"/>
	</g>
	<g>
		<path d="M970,865.9c-2.1,0-4.2-0.8-5.8-2.5c-3.1-3.2-3-8.3,0.2-11.3l19.9-19.1c3.2-3.1,8.3-3,11.3,0.2c3.1,3.2,3,8.3-0.2,11.3
			l-19.9,19.1C974,865.2,972,865.9,970,865.9z"/>
	</g>
	<g>
		<path d="M1008.2,865.9c-2.1,0-4.2-0.8-5.8-2.5c-3.1-3.2-3-8.3,0.2-11.3l19.9-19.1c3.2-3.1,8.3-3,11.3,0.2c3.1,3.2,3,8.3-0.2,11.3
			l-19.9,19.1C1012.2,865.2,1010.2,865.9,1008.2,865.9z"/>
	</g>
	<g>
		<path d="M595.4,865.9c-2.1,0-4.2-0.8-5.8-2.5c-3.1-3.2-2.9-8.3,0.3-11.3l20-19.1c3.2-3.1,8.3-2.9,11.3,0.3
			c3.1,3.2,2.9,8.3-0.3,11.3l-20,19.1C599.4,865.2,597.4,865.9,595.4,865.9z"/>
	</g>
	<g>
		<path d="M633.6,865.9c-2.1,0-4.2-0.8-5.8-2.5c-3.1-3.2-2.9-8.3,0.3-11.3l20-19.1c3.2-3.1,8.3-2.9,11.3,0.3
			c3.1,3.2,2.9,8.3-0.3,11.3l-20,19.1C637.6,865.2,635.6,865.9,633.6,865.9z"/>
	</g>
	<g>
		<path d="M671.8,865.9c-2.1,0-4.2-0.8-5.8-2.5c-3.1-3.2-2.9-8.3,0.3-11.3l20-19.1c3.2-3.1,8.3-2.9,11.3,0.3
			c3.1,3.2,2.9,8.3-0.3,11.3l-20,19.1C675.8,865.2,673.8,865.9,671.8,865.9z"/>
	</g>
</g>
<g>
	<g>
		<path d="M3155.8,199h-149.5c-4.4,0-8-3.6-8-8V41.5c0-4.4,3.6-8,8-8h149.5c4.4,0,8,3.6,8,8V191C3163.8,195.4,3160.2,199,3155.8,199
			z M3014.3,183h133.5V49.5h-133.5V183z"/>
	</g>
	<g>
		<path d="M3055.8,149.5h-16V83c0-4.4,3.6-8,8-8h66.4v16h-58.4V149.5z"/>
	</g>
	<g>
		<path d="M3155.8,348.5h-149.5c-4.4,0-8-3.6-8-8V191c0-4.4,3.6-8,8-8h149.5c4.4,0,8,3.6,8,8v149.5
			C3163.8,344.9,3160.2,348.5,3155.8,348.5z M3014.3,332.5h133.5V199h-133.5V332.5z"/>
	</g>
	<g>
		<path d="M3055.8,299h-16v-66.5c0-4.4,3.6-8,8-8h66.4v16h-58.4V299z"/>
	</g>
	<g>
		<path d="M3006.3,348.5h-149.5c-4.4,0-8-3.6-8-8V191c0-4.4,3.6-8,8-8h149.5c4.4,0,8,3.6,8,8v149.5
			C3014.3,344.9,3010.7,348.5,3006.3,348.5z M2864.8,332.5h133.5V199h-133.5V332.5z"/>
	</g>
	<g>
		<path d="M2906.3,299h-16v-66.5c0-4.4,3.6-8,8-8h66.5v16h-58.5V299z"/>
	</g>
	<g>
		<path d="M3006.3,498h-149.5c-4.4,0-8-3.6-8-8V340.5c0-4.4,3.6-8,8-8h149.5c4.4,0,8,3.6,8,8V490
			C3014.3,494.4,3010.7,498,3006.3,498z M2864.8,482h133.5V348.5h-133.5V482z"/>
	</g>
	<g>
		<path d="M2906.3,448.4h-16V382c0-4.4,3.6-8,8-8h66.5v16h-58.5V448.4z"/>
	</g>
</g>
<g>
	<g>
		<path d="M2000.6,489.7h-182.7c-3.9,0-7.3-2.8-7.9-6.7l-58.1-340.5c-0.4-2.3,0.3-4.7,1.8-6.5c1.5-1.8,3.8-2.8,6.1-2.8h298.9
			c2.4,0,4.6,1,6.1,2.8c1.5,1.8,2.2,4.2,1.8,6.5L2008.5,483C2007.8,486.9,2004.5,489.7,2000.6,489.7z M1824.7,473.7h169.2
			l55.4-324.5h-279.9L1824.7,473.7z"/>
	</g>
	<g>
		<path d="M2084.5,149.1h-348.8c-4.4,0-8-3.6-8-8v-83c0-4.4,3.6-8,8-8h348.8c4.4,0,8,3.6,8,8v83
			C2092.5,145.5,2088.9,149.1,2084.5,149.1z M1743.7,133.1h332.8v-67h-332.8V133.1z"/>
	</g>
	<g>
		<path d="M1909.2,348.5c-27.3,0-49.5-22.2-49.5-49.5s22.2-49.5,49.5-49.5s49.5,22.2,49.5,49.5S1936.5,348.5,1909.2,348.5z
			 M1909.2,265.5c-18.5,0-33.5,15-33.5,33.5s15,33.5,33.5,33.5s33.5-15,33.5-33.5S1927.6,265.5,1909.2,265.5z"/>
	</g>
	<g>
		<rect x="1768.9" y="207.9" width="274" height="16"/>
	</g>
	<g>
		<rect x="1802.1" y="382.3" width="215.9" height="16"/>
	</g>
</g>
<g>
	<path d="M3571,464.8h-41.5c-4.4,0-8-3.6-8-8v-33.6h-33.6c-4.4,0-8-3.6-8-8v-41.8h-41.8c-4.4,0-8-3.6-8-8v-33.5h-33.5
		c-4.4,0-8-3.6-8-8v-41.8h-33.5c-4.4,0-8-3.6-8-8V157.8c0-4.4,3.6-8,8-8h33.5V108c0-4.4,3.6-8,8-8h124.6c4.4,0,8,3.6,8,8v41.8h42.1
		V108c0-4.4,3.6-8,8-8h124.6c4.4,0,8,3.6,8,8v41.8h33.5c4.4,0,8,3.6,8,8v116.3c0,4.4-3.6,8-8,8h-33.5v41.8c0,4.4-3.6,8-8,8h-33.6
		v33.5c0,4.4-3.6,8-8,8h-41.8v41.8c0,4.4-3.6,8-8,8H3579v33.6C3579,461.2,3575.4,464.8,3571,464.8z M3537.5,448.8h25.5v-33.6
		c0-4.4,3.6-8,8-8h33.5v-41.8c0-4.4,3.6-8,8-8h41.8v-33.5c0-4.4,3.6-8,8-8h33.6v-41.8c0-4.4,3.6-8,8-8h33.5V165.8h-33.5
		c-4.4,0-8-3.6-8-8V116h-108.6v41.8c0,4.4-3.6,8-8,8h-58.1c-4.4,0-8-3.6-8-8V116h-108.6v41.8c0,4.4-3.6,8-8,8h-33.5v100.3h33.5
		c4.4,0,8,3.6,8,8v41.8h33.5c4.4,0,8,3.6,8,8v33.5h41.8c4.4,0,8,3.6,8,8v41.8h33.6c4.4,0,8,3.6,8,8V448.8z"/>
</g>
<g>
	<g>
		<path d="M166.1,880c-1.5,0-3.1-0.4-4.4-1.3l-99.7-66.5c-2.2-1.4-3.5-3.9-3.6-6.5s1.1-5.1,3.2-6.6l99.7-74.7
			c3.5-2.7,8.6-1.9,11.2,1.6s1.9,8.6-1.6,11.2l-90.6,67.9l90.3,60.2c3.7,2.5,4.7,7.4,2.2,11.1C171.2,878.8,168.7,880,166.1,880z"/>
	</g>
	<g>
		<path d="M373.7,880c-2.6,0-5.1-1.3-6.7-3.6c-2.5-3.7-1.5-8.7,2.2-11.1l90.3-60.2l-90.6-67.9c-3.5-2.7-4.3-7.7-1.6-11.2
			c2.7-3.5,7.7-4.3,11.2-1.6l99.7,74.7c2.1,1.6,3.3,4,3.2,6.6s-1.4,5-3.6,6.5l-99.7,66.5C376.8,879.6,375.2,880,373.7,880z"/>
	</g>
	<g>
		<path d="M214.3,933.1c-1.1,0-2.3-0.2-3.4-0.8c-4-1.9-5.7-6.7-3.9-10.7L326.5,666c1.9-4,6.7-5.7,10.7-3.9c4,1.9,5.7,6.7,3.9,10.7
			L221.6,928.5C220.2,931.4,217.3,933.1,214.3,933.1z"/>
	</g>
</g>
<g>
	<g>
		<path d="M896.9,498H664.4c-4.4,0-8-3.6-8-8V182.7c0-4.4,3.6-8,8-8h132.8c4.4,0,8,3.6,8,8s-3.6,8-8,8H672.4V482h216.5V182.7
			c0-4.4,3.6-8,8-8s8,3.6,8,8V490C904.9,494.4,901.3,498,896.9,498z"/>
	</g>
	<g>
		<rect x="772.6" y="257.4" width="16" height="174.4"/>
	</g>
	<g>
		<rect x="839.1" y="282.4" width="16" height="149.4"/>
	</g>
	<g>
		<rect x="706.2" y="257.4" width="16" height="174.4"/>
	</g>
	<g>
		<path d="M921.8,431.5h-24.9v-16h21.6l11.9-11.9V269l-11.9-11.9h-21.6v-16h24.9c2.1,0,4.2,0.8,5.7,2.4l16.6,16.6
			c1.5,1.5,2.4,3.5,2.4,5.7v141.2c0,2.1-0.8,4.2-2.4,5.7l-16.6,16.6C926,430.7,923.9,431.5,921.8,431.5z"/>
	</g>
	<g>
		<path d="M880.1,365h-8.3c-25.1,0-32.5-15.9-32.9-24.2l0-0.4v-34.8c-2.5,0.8-5.4,1.3-8.6,1.3H822c-18.1,0-24.6-14.7-24.6-24.6
			v-91.7h-144l-1.8-5.6c-2-6.2-3.7-21.2-3.7-27.3c0-38.7,29.7-70.6,67.4-74.1c5.8-29,30.9-50.1,61-50.1c17.7,0,34.1,7.4,45.1,20
			c6.7-2.3,13.5-3.4,20.6-3.4c26.2,0,49.1,16.8,58,41.6c9.4,0.5,18.8,5.9,26.1,15c7.7,9.5,12,21.8,12,34.5
			c0,22.3-15.1,42.9-33.4,47.7v151.5C904.7,350.3,898.2,365,880.1,365z M854.9,340c0.3,1.9,2.2,9,16.9,9h8.3c7.3,0,8.5-5.4,8.6-8.7
			l0-166.4h8c11.5,0,25.4-14.6,25.4-32.7c0-20.1-14.2-33.5-23.6-33.5c-0.3,0-0.5,0-0.7,0c0,0-0.1,0-0.1,0l-8.9,4.2l-2.3-9.6
			C881.4,81,863.1,66.1,842,66.1c-7,0-13.4,1.4-20.1,4.3l-6.1,2.7l-3.8-5.5c-7.8-11.3-21.1-18.1-35.8-18.1
			c-24.1,0-43.9,18.3-46,42.5l-0.6,7.3h-7.3c-32.2,0-58.4,26.2-58.4,58.4c0,3.8,0.8,11.4,1.7,16.9h147.8v107.7
			c0.1,3.1,1.3,8.6,8.6,8.6h8.3c4.8,0,6.4-2,7.3-3.9c1.1-2.2,1.2-4.7,1.2-4.7v-99.7h16V340z"/>
	</g>
</g>
<g>
	<polygon points="83,232.5 33.2,232.5 0,232.5 0,265.7 0,315.6 0,373.7 8.3,373.7 8.3,315.6 33.2,315.6 33.2,265.7 83,265.7 	"/>
</g>
<g>
	<polygon points="99.7,382 149.5,382 182.7,382 182.7,348.8 182.7,299 182.7,240.8 174.4,240.8 174.4,299 149.5,299 149.5,348.8 
		99.7,348.8 	"/>
</g>
<g>
	<g>
		<path d="M2665.8,448.2h-406.9c-4.4,0-8-3.6-8-8V116.3c0-4.4,3.6-8,8-8h406.9c4.4,0,8,3.6,8,8v323.9
			C2673.8,444.6,2670.2,448.2,2665.8,448.2z M2266.9,432.2h390.9V124.3h-390.9V432.2z"/>
	</g>
	<g>
		<path d="M2632.6,315.3h-340.5c-2.1,0-4.2-0.8-5.7-2.4l-33.2-33.2l11.3-11.3l30.8,30.8h333.9l30.8-30.8l11.3,11.3l-33.2,33.2
			C2636.8,314.5,2634.7,315.3,2632.6,315.3z"/>
	</g>
	<g>
		<rect x="2283.8" y="141.5" width="357.1" height="16"/>
	</g>
	<g>
		<path d="M2362.7,389.4c-2.1,0-4.2-0.8-5.7-2.4l-21.1-21.1c-1.5-1.5-2.3-3.5-2.3-5.7s0.8-4.2,2.3-5.7l21.1-21.1
			c1.5-1.5,3.5-2.4,5.7-2.4l0,0c2.1,0,4.2,0.8,5.7,2.4l21.1,21.1c3.1,3.1,3.1,8.2,0,11.3l-21.1,21.1
			C2366.8,388.6,2364.8,389.4,2362.7,389.4z M2352.9,360.3l9.8,9.8l9.8-9.8l-9.8-9.8L2352.9,360.3z"/>
	</g>
	<g>
		<rect x="2342.2" y="307.3" width="16" height="49.8"/>
	</g>
	<g>
		<rect x="2367.1" y="307.3" width="16" height="49.8"/>
	</g>
	<g>
		<path d="M2562,389.5L2562,389.5c-2.1,0-4.2-0.8-5.7-2.4l-21.1-21.1c-3.1-3.1-3.1-8.2,0-11.3l21.1-21.1c1.5-1.5,3.5-2.4,5.7-2.4
			s4.2,0.8,5.7,2.4l21.1,21.1c1.5,1.5,2.3,3.5,2.3,5.7s-0.8,4.2-2.3,5.7l-21.1,21.1C2566.2,388.7,2564.2,389.5,2562,389.5z
			 M2552.2,360.3l9.8,9.8l9.8-9.8l-9.8-9.8L2552.2,360.3z"/>
	</g>
	<g>
		<rect x="2541.5" y="307.3" width="16" height="49.8"/>
	</g>
	<g>
		<rect x="2566.4" y="307.3" width="16" height="49.8"/>
	</g>
	<g>
		<rect x="2341.9" y="266.1" width="41.5" height="16"/>
	</g>
	<g>
		<rect x="2541.2" y="266.1" width="41.5" height="16"/>
	</g>
	<g>
		<path d="M2574.4,124.2h-224.2c-4.4,0-8-3.6-8-8V83c0-4.4,3.6-8,8-8h224.2c4.4,0,8,3.6,8,8v33.2
			C2582.4,120.6,2578.8,124.2,2574.4,124.2z M2358.2,108.2h208.2V91h-208.2V108.2z"/>
	</g>
</g>
<g>
	<path d="M348.5,381.7H216.2V249.4h132.3V381.7z M232.2,365.7h100.3V265.4H232.2V365.7z"/>
</g>
<g>
	<rect x="224.2" y="307.6" width="33.2" height="16"/>
</g>
<g>
	<rect x="307.3" y="307.6" width="33.2" height="16"/>
</g>
<g>
	<circle cx="282.4" cy="314.7" r="24.9"/>
	<path d="M282.4,347.6c-18.2,0-32.9-14.8-32.9-32.9s14.8-32.9,32.9-32.9s32.9,14.8,32.9,32.9S300.6,347.6,282.4,347.6z M282.4,297.8
		c-9.3,0-16.9,7.6-16.9,16.9s7.6,16.9,16.9,16.9s16.9-7.6,16.9-16.9S291.7,297.8,282.4,297.8z"/>
</g>
<g>
	<circle fill="#FFFFFF" cx="282.4" cy="315.6" r="16.6"/>
</g>
<g>
	<g>
		<path d="M1165.1,698.1c-18.2,0-32.9-14.8-32.9-32.9s14.8-32.9,32.9-32.9s32.9,14.8,32.9,32.9S1183.2,698.1,1165.1,698.1z
			 M1165.1,648.3c-9.3,0-16.9,7.6-16.9,16.9s7.6,16.9,16.9,16.9s16.9-7.6,16.9-16.9S1174.4,648.3,1165.1,648.3z"/>
	</g>
	<g>
		<path d="M1165.1,698.1c-18.2,0-32.9-14.8-32.9-32.9s14.8-32.9,32.9-32.9s32.9,14.8,32.9,32.9S1183.2,698.1,1165.1,698.1z
			 M1165.1,648.3c-9.3,0-16.9,7.6-16.9,16.9s7.6,16.9,16.9,16.9s16.9-7.6,16.9-16.9S1174.4,648.3,1165.1,648.3z"/>
	</g>
	<g>
		<path d="M1555.5,698.1c-18.2,0-32.9-14.8-32.9-32.9s14.8-32.9,32.9-32.9s32.9,14.8,32.9,32.9S1573.6,698.1,1555.5,698.1z
			 M1555.5,648.3c-9.3,0-16.9,7.6-16.9,16.9s7.6,16.9,16.9,16.9s16.9-7.6,16.9-16.9S1564.8,648.3,1555.5,648.3z"/>
	</g>
	<g>
		<rect x="1395.2" y="656.4" width="132.9" height="16"/>
	</g>
	<g>
		<rect x="1187.6" y="656.4" width="132.8" height="16"/>
	</g>
	<g>
		<path d="M1555.5,698.1c-18.2,0-32.9-14.8-32.9-32.9s14.8-32.9,32.9-32.9s32.9,14.8,32.9,32.9S1573.6,698.1,1555.5,698.1z
			 M1555.5,648.3c-9.3,0-16.9,7.6-16.9,16.9s7.6,16.9,16.9,16.9s16.9-7.6,16.9-16.9S1564.8,648.3,1555.5,648.3z"/>
	</g>
	<g>
		<path d="M1605,901.9h-16c0-54.6-19.7-107.5-55.4-148.8c-35.3-40.8-84-68.1-137.2-76.7l2.6-15.8c56.9,9.2,109,38.4,146.8,82
			C1584,786.8,1605,843.4,1605,901.9z"/>
	</g>
	<g>
		<path d="M1131.6,901.9h-16c0-58.6,21-115.3,59.3-159.6c37.8-43.9,90-72.9,146.8-81.7l2.5,15.9c-53.1,8.2-101.8,35.3-137.1,76.4
			C1151.3,794.2,1131.6,847.2,1131.6,901.9z"/>
	</g>
	<g>
		<path d="M1436.9,1004.6h-145L1256.1,879l105.8-162.7l111,162.5L1436.9,1004.6z M1304,988.6h120.8l30.5-106.9l-93.2-136.4
			l-88.6,136.3L1304,988.6z"/>
	</g>
	<g>
		<path d="M1403.1,705.6h-82.4v-82.4h82.4V705.6z M1336.7,689.6h50.4v-50.4h-50.4V689.6z"/>
	</g>
	<g>
		<rect x="1354" y="722.5" width="16" height="191"/>
	</g>
	<g>
		<rect x="1254" y="988.6" width="215.9" height="16"/>
	</g>
	<g>
		<path d="M1362,963c-18.2,0-32.9-14.8-32.9-32.9s14.8-32.9,32.9-32.9s32.9,14.8,32.9,32.9S1380.1,963,1362,963z M1362,913.2
			c-9.3,0-16.9,7.6-16.9,16.9s7.6,16.9,16.9,16.9s16.9-7.6,16.9-16.9S1371.3,913.2,1362,913.2z"/>
	</g>
</g>
<g>
	<g>
		<path d="M1905.9,944.7c-2.7,0-5.3-1.4-6.8-3.7c-0.2-0.4-25-39.2-49.3-85.1c-33.1-62.5-49.9-107.9-49.9-135.1
			c0-32.7,9.7-59.7,28-78s45.3-28,78-28c32.7,0,59.7,9.7,78,28c18.3,18.3,28,45.3,28,78c0,27.2-16.8,72.6-49.9,135.1
			c-24.4,45.9-49.1,84.8-49.3,85.1C1911.2,943.3,1908.6,944.7,1905.9,944.7z M1905.9,630.8c-58,0-90,32-90,90
			c0,24.2,16.6,68.3,48.1,127.6c16.4,30.9,33,58.6,41.9,73.2c9-14.6,25.5-42.3,42-73.3c31.4-59.2,48-103.3,48-127.5
			c0-28.8-7.8-51.2-23.3-66.7C1957.1,638.7,1934.7,630.8,1905.9,630.8z"/>
	</g>
	<g>
		<path d="M1905.1,767c-25.5,0-46.2-20.7-46.2-46.2s20.7-46.2,46.2-46.2s46.2,20.7,46.2,46.2S1930.6,767,1905.1,767z M1905.1,690.6
			c-16.6,0-30.2,13.5-30.2,30.2s13.5,30.2,30.2,30.2s30.2-13.5,30.2-30.2S1921.7,690.6,1905.1,690.6z"/>
	</g>
	<g>
		<path d="M1837,1021.2c-3.4,0-6.5-2.1-7.6-5.5c-1.4-4.2,0.9-8.7,5.1-10.2l136.2-45.7c4.2-1.4,8.7,0.9,10.2,5.1
			c1.4,4.2-0.9,8.7-5.1,10.2l-136.2,45.7C1838.7,1021.1,1837.8,1021.2,1837,1021.2z"/>
	</g>
	<g>
		<path d="M1973.2,1021.2c-0.8,0-1.7-0.1-2.6-0.4l-136.2-45.7c-4.2-1.4-6.5-6-5.1-10.2c1.4-4.2,6-6.5,10.2-5.1l136.2,45.7
			c4.2,1.4,6.5,6,5.1,10.2C1979.7,1019.1,1976.5,1021.2,1973.2,1021.2z"/>
	</g>
	<g>
		<path d="M1810.4,934c-1.3,0-2.5-0.3-3.7-0.9c-2.3-1.2-3.9-3.4-4.3-5.9l-8.3-54c-0.5-3.1,0.9-6.2,3.5-7.9l47.3-31.6
			c1.9-1.2,4.2-1.7,6.4-1.1c2.2,0.5,4,2,5.1,3.9l28.3,51.5c1,1.9,1.3,4.2,0.6,6.2s-2.1,3.8-4,4.8l-67.3,34.1
			C1812.9,933.7,1811.6,934,1810.4,934z M1810.8,875.8l5.8,38l50-25.3l-20.1-36.6L1810.8,875.8z"/>
	</g>
	<g>
		<path d="M2001.4,934c-1.2,0-2.5-0.3-3.6-0.9l-67.3-34.1c-1.9-1-3.4-2.7-4-4.7c-0.7-2-0.5-4.3,0.5-6.2l27.5-52.3
			c1.1-2,2.9-3.5,5.1-4c2.2-0.6,4.6-0.1,6.4,1.1l48.1,32.4c2.6,1.7,3.9,4.8,3.4,7.9l-8.3,54c-0.4,2.5-2,4.7-4.3,5.9
			C2003.9,933.7,2002.6,934,2001.4,934z M1945,888.4l50.2,25.4l5.8-38l-36.5-24.6L1945,888.4z"/>
	</g>
</g>
<g>
	<g>
		<path d="M2637.1,852.2l-111.8-64.5l64.5-112.7l112.7,65.4L2637.1,852.2z M2547.1,781.8l84.2,48.5l49.2-84.2l-84.9-49.2
			L2547.1,781.8z"/>
	</g>
	<g>
		<path d="M2717.5,912.8L2617.4,855l64.5-111.9l99.9,57.7l-67.2,35.9L2717.5,912.8z M2639.3,849.2l61.1,35.2l-2.1-57l50.6-27.1
			l-61.1-35.3L2639.3,849.2z"/>
	</g>
	<g>
		<rect x="2512.8" y="641.6" transform="matrix(0.8659 0.5002 -0.5002 0.8659 744.1898 -1152.1676)" width="16" height="340.5"/>
	</g>
	<g>
		<path d="M2354,852.2l-65.4-111.8l112.8-65.4l64.4,112.8L2354,852.2z M2310.6,746.2l49.2,84.2l84.1-48.5l-48.4-84.8L2310.6,746.2z"
			/>
	</g>
	<g>
		<path d="M2273.5,912.8l2.9-76l-67.3-35.9l100.1-57.7l64.5,111.9L2273.5,912.8z M2242.1,800.3l50.7,27.1l-2.1,57l61.1-35.2
			l-48.5-84.1L2242.1,800.3z"/>
	</g>
	<g>
		<rect x="2300" y="803.8" transform="matrix(0.5 0.866 -0.866 0.5 1938.1415 -1733.3469)" width="340.4" height="16"/>
	</g>
</g>
<g>
	<path d="M3795,979.7h-481.1V639.8H3795V979.7z M3329.9,963.7h449V655.8h-449V963.7z"/>
</g>
<g>
	<rect x="3537.8" y="647.8" fill="#FFFFFF" width="33.2" height="33.2"/>
	<path d="M3579,689h-49.2v-49.2h49.2V689z M3545.8,673h17.2v-17.2h-17.2V673z"/>
</g>
<g>
	<rect x="3537.8" y="938.4" fill="#FFFFFF" width="33.2" height="33.2"/>
	<path d="M3579,979.6h-49.2v-49.2h49.2V979.6z M3545.8,963.6h17.2v-17.2h-17.2V963.6z"/>
</g>
<g>
	<path d="M3761.7,946.4h-414.6V673h414.6V946.4z M3363.1,930.4h382.6V689h-382.6V930.4z"/>
</g>
<g>
	<rect x="3546.4" y="681" width="16" height="257.4"/>
</g>
<g>
	<polygon fill="#FFFFFF" points="3629.1,1009 3616.7,1001.5 3604.2,1009 3604.2,946.7 3629.1,946.7 	"/>
	<path d="M3637.1,1023.2l-20.4-12.4l-20.5,12.3v-84.5h40.9V1023.2z M3612.2,954.7v40.1l4.5-2.7l4.4,2.6v-40H3612.2z"/>
</g>
<g>
	<rect x="3595.9" y="722.8" width="116.3" height="16"/>
</g>
<g>
	<rect x="3595.9" y="756" width="116.3" height="16"/>
</g>
<g>
	<rect x="3595.9" y="789.2" width="116.3" height="16"/>
</g>
<g>
	<rect x="3595.9" y="822.5" width="116.3" height="16"/>
</g>
<g>
	<rect x="3595.9" y="855.7" width="116.3" height="16"/>
</g>
<g>
	<rect x="3396.6" y="822.5" width="116.3" height="16"/>
</g>
<g>
	<rect x="3396.6" y="855.7" width="116.3" height="16"/>
</g>
<g>
	<path d="M3512.6,805.2h-115.7v-82.4h115.7V805.2z M3412.9,789.2h83.7v-50.4h-83.7V789.2z"/>
</g>
<g>
	<g>
		<path d="M265.7,1536.1c-96,0-174.1-78.1-174.1-174.1c0-96,78.1-174.1,174.1-174.1c96,0,174.1,78.1,174.1,174.1
			C439.8,1458,361.7,1536.1,265.7,1536.1z M265.7,1203.9c-87.2,0-158.1,70.9-158.1,158.1s70.9,158.1,158.1,158.1
			s158.1-70.9,158.1-158.1S352.9,1203.9,265.7,1203.9z"/>
	</g>
	<g>
		<path d="M123.5,1386.1c-6.9,0-13.9-0.4-20.7-1.2l1.9-15.9c23.4,2.8,47.5,0.3,69.8-7.1c23.4-7.8,44.1-20.5,61.5-37.9
			c34.1-33.3,50.8-79.6,45.9-127.2l16-1.7c5.4,52.5-13,103.6-50.6,140.3c-19.1,19.1-41.9,33.1-67.7,41.7
			C161.6,1383,142.5,1386.1,123.5,1386.1z"/>
	</g>
	<g>
		<path d="M242.9,1529.3c-3.9-26.5-1.7-53.9,6.4-79.3c8.3-26.1,23-50.2,42.4-69.5c19.1-19.1,41.9-33.2,67.7-41.8
			c24.5-8.2,51.1-10.9,76.8-7.8l-1.9,15.9c-23.4-2.8-47.5-0.3-69.8,7.1c-23.4,7.8-44.1,20.5-61.5,37.9c-35,35-51.6,85.6-44.2,135.2
			L242.9,1529.3z"/>
	</g>
	<g>
		<path d="M386.2,1484.6c-2.1,0-4.1-0.8-5.7-2.4l-235.1-235.1c-3.1-3.1-3.1-8.2,0-11.3c3.1-3.1,8.2-3.1,11.3,0l235.1,235.1
			c3.1,3.1,3.1,8.2,0,11.3C390.3,1483.8,388.3,1484.6,386.2,1484.6z"/>
	</g>
</g>
</svg>
